<svg xmlns="http://www.w3.org/2000/svg" xmlns:xlink="http://www.w3.org/1999/xlink" width="1024" zoomAndPan="magnify" viewBox="0 0 768 767.999994" height="1024" preserveAspectRatio="xMidYMid meet" version="1.0"><defs><g/></defs><g fill="#3a4d39" fill-opacity="1"><g transform="translate(94.790082, 420.374999)"><g><path d="M 34.367188 -7.199219 C 33.3125 -7.199219 32.449219 -8.0625 32.449219 -9.121094 L 32.449219 -27.9375 C 32.449219 -29.089844 33.40625 -29.953125 34.464844 -29.855469 C 41.855469 -29.472656 45.503906 -26.785156 45.503906 -21.984375 L 49.152344 -21.984375 L 49.152344 -45.214844 L 45.503906 -45.214844 C 45.503906 -40.128906 42.046875 -37.632812 34.464844 -37.246094 C 33.40625 -37.246094 32.449219 -38.113281 32.449219 -39.167969 L 32.449219 -57.984375 C 32.449219 -59.039062 33.3125 -59.902344 34.367188 -59.902344 L 44.832031 -59.902344 C 51.742188 -59.902344 56.832031 -55.777344 58.558594 -48.671875 L 62.113281 -48.671875 L 59.808594 -67.199219 L 5.761719 -67.199219 L 5.761719 -63.550781 C 11.136719 -63.550781 13.632812 -59.519531 13.726562 -50.976562 L 13.726562 -16.222656 C 13.632812 -7.585938 11.136719 -3.648438 5.761719 -3.648438 L 5.761719 0 L 61.152344 0 L 63.457031 -18.433594 L 59.902344 -18.433594 C 58.175781 -11.425781 53.089844 -7.199219 46.175781 -7.199219 Z M 34.367188 -7.199219 "/></g></g></g><g fill="#3a4d39" fill-opacity="1"><g transform="translate(161.606089, 420.374999)"><g><path d="M 40.414062 -50.785156 C 35.425781 -50.785156 31.296875 -49.054688 28.128906 -46.078125 L 28.128906 -48.960938 L 5.664062 -48.960938 L 9.214844 -43.296875 C 9.984375 -42.046875 10.367188 -40.609375 10.367188 -39.070312 L 10.367188 10.175781 C 10.273438 17.183594 8.257812 21.503906 2.878906 21.503906 L 2.878906 24.960938 L 35.710938 24.960938 L 35.710938 21.503906 C 30.238281 21.503906 28.320312 16.992188 28.128906 9.886719 L 28.128906 -0.191406 C 28.128906 -1.246094 29.375 -1.921875 30.238281 -1.246094 C 32.929688 0.574219 36.289062 1.632812 40.03125 1.632812 C 55.105469 1.632812 65.28125 -10.175781 65.28125 -24.574219 C 65.28125 -38.878906 55.199219 -50.785156 40.414062 -50.785156 Z M 38.59375 -5.375 C 32.160156 -4.511719 28.414062 -11.519531 26.785156 -22.175781 C 25.152344 -32.929688 26.878906 -40.511719 33.3125 -41.28125 C 38.878906 -42.046875 44.257812 -35.328125 45.792969 -24.863281 C 47.328125 -14.304688 44.160156 -6.144531 38.59375 -5.375 Z M 38.59375 -5.375 "/></g></g></g><g fill="#3a4d39" fill-opacity="1"><g transform="translate(229.7661, 420.374999)"><g><path d="M 36.769531 -3.457031 C 31.105469 -3.457031 29.28125 -8.0625 29.183594 -15.359375 L 29.183594 -48.960938 L 6.625 -48.960938 L 10.175781 -43.296875 C 11.039062 -42.046875 11.425781 -40.609375 11.425781 -39.167969 L 11.425781 -15.359375 C 11.328125 -8.0625 9.40625 -3.457031 3.839844 -3.457031 L 3.839844 0 L 36.769531 0 Z M 20.0625 -51.359375 C 25.535156 -51.359375 30.046875 -55.871094 30.046875 -61.34375 C 30.046875 -66.910156 25.535156 -71.328125 20.0625 -71.328125 C 14.59375 -71.328125 10.078125 -66.910156 10.078125 -61.34375 C 10.078125 -55.871094 14.59375 -51.359375 20.0625 -51.359375 Z M 20.0625 -51.359375 "/></g></g></g><g fill="#3a4d39" fill-opacity="1"><g transform="translate(270.374107, 420.374999)"><g><path d="M 45.214844 -27.167969 C 51.359375 -27.167969 56.257812 -31.777344 56.257812 -37.246094 C 56.257812 -45.121094 46.367188 -50.976562 33.503906 -50.976562 C 15.742188 -50.976562 2.878906 -39.742188 2.878906 -24.382812 C 2.878906 -9.214844 15.457031 1.632812 33.214844 1.632812 C 43.390625 1.632812 56.257812 0.0976562 56.257812 -11.039062 C 56.257812 -17.089844 48.289062 -19.679688 48.289062 -19.679688 C 46.65625 -14.398438 41.472656 -6.527344 36.671875 -6.527344 C 28.414062 -6.527344 22.078125 -15.839844 22.078125 -27.839844 C 22.078125 -36.863281 25.726562 -42.71875 31.390625 -42.71875 C 35.230469 -42.71875 38.304688 -40.03125 38.304688 -36.480469 C 38.304688 -35.039062 37.824219 -33.214844 36.769531 -31.296875 C 36.769531 -31.296875 39.359375 -27.167969 45.214844 -27.167969 Z M 45.214844 -27.167969 "/></g></g><g transform="translate(329.510107, 420.374999)"><g><path d="M 26.6875 -18.046875 C 37.632812 -18.71875 56.640625 -21.695312 56.640625 -34.753906 C 56.640625 -44.160156 47.039062 -50.976562 33.503906 -50.976562 C 16.128906 -50.976562 2.878906 -39.742188 2.878906 -24.382812 C 2.878906 -9.214844 15.550781 1.632812 33.3125 1.632812 C 43.488281 1.632812 56.640625 0 56.640625 -11.039062 C 56.640625 -17.183594 48.671875 -19.679688 48.671875 -19.679688 C 47.617188 -16.128906 41.953125 -6.527344 36.769531 -6.527344 C 31.871094 -6.527344 27.550781 -9.886719 24.960938 -15.070312 C 24.289062 -16.414062 25.152344 -17.953125 26.6875 -18.046875 Z M 24.191406 -25.824219 C 23.136719 -25.824219 22.175781 -26.6875 22.175781 -27.839844 C 22.175781 -36.863281 26.113281 -42.71875 31.105469 -42.71875 C 35.230469 -42.71875 38.6875 -38.6875 38.6875 -34.464844 C 38.6875 -27.648438 29.953125 -26.113281 24.191406 -25.824219 Z M 24.191406 -25.824219 "/></g></g></g><g fill="#3a4d39" fill-opacity="1"><g transform="translate(389.030119, 420.374999)"><g><path d="M 61.726562 -19.679688 C 60.769531 -17.28125 59.425781 -16.128906 57.40625 -16.128906 C 55.679688 -16.128906 54.527344 -17.089844 54.527344 -18.433594 C 54.527344 -22.367188 63.265625 -28.222656 63.265625 -36.574219 C 63.265625 -44.351562 55.390625 -50.785156 45.695312 -50.785156 C 37.441406 -50.785156 30.910156 -47.328125 27.457031 -42.046875 L 27.457031 -48.960938 L 7.585938 -48.960938 L 10.847656 -43.777344 C 11.808594 -42.144531 12.382812 -40.414062 12.382812 -38.496094 L 12.382812 -15.359375 C 12.289062 -8.0625 10.367188 -3.457031 4.800781 -3.457031 L 4.800781 0 L 37.726562 0 L 37.726562 -3.457031 C 32.0625 -3.457031 30.238281 -8.0625 30.144531 -15.359375 L 30.144531 -32.929688 C 30.144531 -38.113281 33.984375 -42.71875 38.496094 -42.71875 C 42.335938 -42.71875 45.503906 -39.359375 45.503906 -35.328125 C 45.503906 -28.703125 36.863281 -23.808594 36.863281 -13.441406 C 36.863281 -4.320312 43.679688 1.824219 53.953125 1.824219 C 63.167969 1.824219 69.695312 -3.070312 69.695312 -10.175781 C 69.695312 -14.59375 67.007812 -17.855469 61.726562 -19.679688 Z M 61.726562 -19.679688 "/></g></g></g><g fill="#3a4d39" fill-opacity="1"><g transform="translate(461.126131, 420.374999)"><g><path d="M 33.121094 -19.679688 C 32.160156 -17.28125 30.71875 -16.128906 28.800781 -16.128906 C 26.976562 -16.128906 25.921875 -17.089844 25.921875 -18.433594 L 25.921875 -40.800781 C 25.921875 -41.855469 26.785156 -42.71875 27.839844 -42.71875 L 36.671875 -42.71875 L 36.671875 -48.960938 L 27.839844 -48.960938 C 26.785156 -48.960938 25.921875 -49.824219 25.921875 -50.878906 L 25.921875 -61.246094 L 21.984375 -61.246094 C 14.785156 -61.246094 10.558594 -48.960938 2.878906 -48.960938 L 2.878906 -42.625 L 6.238281 -42.625 C 7.296875 -42.625 8.160156 -41.761719 8.160156 -40.703125 L 8.160156 -21.3125 L 8.257812 -21.3125 L 8.257812 -13.535156 C 8.257812 -4.320312 15.167969 1.824219 25.34375 1.824219 C 34.558594 1.824219 41.089844 -3.070312 41.089844 -10.078125 C 41.089844 -14.59375 38.398438 -17.855469 33.121094 -19.679688 Z M 33.121094 -19.679688 "/></g></g></g><g fill="#3a4d39" fill-opacity="1"><g transform="translate(503.654136, 420.374999)"><g><path d="M 45.023438 -50.785156 C 37.632812 -50.785156 31.105469 -47.519531 27.457031 -42.433594 L 27.457031 -48.960938 L 7.585938 -48.960938 L 11.328125 -43.105469 C 12 -41.953125 12.382812 -40.609375 12.382812 -39.359375 L 12.382812 -15.359375 C 12.289062 -8.0625 10.464844 -3.457031 4.800781 -3.457031 L 4.800781 0 L 37.726562 0 L 37.726562 -3.457031 C 32.160156 -3.457031 30.238281 -8.0625 30.144531 -15.359375 L 30.144531 -32.929688 C 30.144531 -38.207031 34.078125 -42.71875 38.976562 -42.71875 C 42.625 -42.71875 45.3125 -40.320312 45.3125 -36.574219 C 45.3125 -33.792969 43.777344 -31.296875 43.777344 -31.296875 C 43.777344 -31.296875 46.078125 -27.167969 51.839844 -27.167969 C 57.984375 -27.167969 63.265625 -31.777344 63.265625 -37.441406 C 63.265625 -44.449219 55.390625 -50.785156 45.023438 -50.785156 Z M 45.023438 -50.785156 "/></g></g></g><g fill="#3a4d39" fill-opacity="1"><g transform="translate(568.358158, 420.374999)"><g><path d="M 53.761719 -29.761719 C 53.761719 -44.257812 43.96875 -50.785156 29.566406 -50.785156 C 16.320312 -50.785156 5.472656 -45.214844 5.472656 -37.054688 C 5.472656 -31.585938 10.367188 -26.976562 16.511719 -26.976562 C 22.273438 -26.976562 24.863281 -31.105469 24.863281 -31.105469 C 24.863281 -31.105469 23.425781 -33.40625 23.425781 -36.574219 C 23.425781 -40.511719 25.824219 -42.71875 29.375 -42.71875 C 33.695312 -42.71875 36.191406 -39.742188 36.191406 -31.105469 C 36.191406 -30.335938 35.710938 -29.566406 35.039062 -29.28125 C 24.769531 -24.960938 2.878906 -24.769531 2.878906 -11.039062 C 2.878906 -3.167969 10.078125 1.824219 19.585938 1.824219 C 27.167969 1.824219 33.886719 -1.34375 37.246094 -3.265625 C 38.398438 -1.824219 40.320312 0 42.433594 0 L 61.34375 0 L 61.34375 -3.457031 C 55.585938 -3.457031 53.761719 -8.160156 53.761719 -15.648438 Z M 36.097656 -11.808594 C 36.097656 -11.230469 35.710938 -10.65625 35.328125 -10.367188 C 32.640625 -8.351562 29.089844 -6.335938 25.34375 -6.335938 C 22.078125 -6.335938 20.640625 -7.96875 20.640625 -10.367188 C 20.640625 -15.9375 28.703125 -19.296875 34.464844 -22.367188 C 35.230469 -22.753906 36.097656 -22.175781 36.097656 -21.3125 Z M 36.097656 -11.808594 "/></g></g></g><g fill="#3a4d39" fill-opacity="1"><g transform="translate(632.58217, 420.374999)"><g><path d="M 29.183594 -67.199219 L 6.625 -67.199219 L 10.367188 -61.152344 C 11.039062 -60.097656 11.425781 -58.945312 11.425781 -57.695312 L 11.425781 -15.359375 C 11.328125 -8.0625 9.503906 -3.457031 3.839844 -3.457031 L 3.839844 0 L 36.769531 0 L 36.769531 -3.457031 C 31.105469 -3.457031 29.28125 -8.0625 29.183594 -15.359375 Z M 29.183594 -67.199219 "/></g></g></g></svg>